HIERARCHY
ROOT Bip001_Pelvis
{
  OFFSET 7.937 94.8971 -8.5489
  CHANNELS 6 Xposition Yposition Zposition Zrotation Xrotation Yrotation
  JOINT Bip001_Spine
  {
    OFFSET 1.44608e-005 10.4157 -0.0118244
    CHANNELS 3 Zrotation Xrotation Yrotation
    JOINT Bip001_L_Thigh
    {
      OFFSET 11.2582 -10.4157 0.0118432
      CHANNELS 3 Zrotation Xrotation Yrotation
      JOINT Bip001_L_Calf
      {
        OFFSET -0.720717 -44.8687 0.366937
        CHANNELS 3 Zrotation Xrotation Yrotation
        JOINT Bip001_L_Foot
        {
          OFFSET -0.664439 -41.3745 -3.62995
          CHANNELS 3 Zrotation Xrotation Yrotation
          JOINT Bip001_L_Toe0
          {
            OFFSET 0.0541047 -10.4146 13.4033
            CHANNELS 3 Zrotation Xrotation Yrotation
            End Site
            {
              OFFSET -1.04503e-005 0 7.70137
            }
          }
        }
      }
    }
    JOINT Bip001_R_Thigh
    {
      OFFSET -11.2582 -10.4156 0.0118122
      CHANNELS 3 Zrotation Xrotation Yrotation
      JOINT Bip001_R_Calf
      {
        OFFSET 0.72059 -44.8687 0.36676
        CHANNELS 3 Zrotation Xrotation Yrotation
        JOINT Bip001_R_Foot
        {
          OFFSET 0.664321 -41.3745 -3.62979
          CHANNELS 3 Zrotation Xrotation Yrotation
          JOINT Bip001_R_Toe0
          {
            OFFSET -0.05417 -10.4146 13.4033
            CHANNELS 3 Zrotation Xrotation Yrotation
            End Site
            {
              OFFSET -1.04873e-005 0 7.70137
            }
          }
        }
      }
    }
    JOINT Bip001_Spine1
    {
      OFFSET 1.90638e-005 14.8539 1.10727
      CHANNELS 3 Zrotation Xrotation Yrotation
      JOINT Bip001_Spine2
      {
        OFFSET 2.28934e-005 14.7848 -1.7233
        CHANNELS 3 Zrotation Xrotation Yrotation
        JOINT Bip001_Neck
        {
          OFFSET 2.24514e-005 15.6905 -0.498826
          CHANNELS 3 Zrotation Xrotation Yrotation
          JOINT Bip001_L_Clavicle
          {
            OFFSET 6.17691 -0.000591152 0.00852867
            CHANNELS 3 Zrotation Xrotation Yrotation
            JOINT Bip001_L_UpperArm
            {
              OFFSET 11.773 -0.0611878 0.00197697
              CHANNELS 3 Zrotation Xrotation Yrotation
              JOINT Bip001_L_Forearm
              {
                OFFSET 26.4515 0.0817568 -2.19579
                CHANNELS 3 Zrotation Xrotation Yrotation
                JOINT Bip001_L_Hand
                {
                  OFFSET 32.8677 0.156744 1.67112
                  CHANNELS 3 Zrotation Xrotation Yrotation
                  JOINT Bip001_L_Finger0
                  {
                    OFFSET 6.16268 -2.25226 6.01674
                    CHANNELS 3 Zrotation Xrotation Yrotation
                    End Site
                    {
                      OFFSET 4.30499 -1.46662 0.618148
                    }
                  }
                  JOINT Bip001_L_Finger1
                  {
                    OFFSET 11.2957 -0.718374 -0.201963
                    CHANNELS 3 Zrotation Xrotation Yrotation
                    End Site
                    {
                      OFFSET 6.31952 -0.405163 -0.0802303
                    }
                  }
                }
              }
            }
          }
          JOINT Bip001_R_Clavicle
          {
            OFFSET -6.17691 -0.000574027 0.00851165
            CHANNELS 3 Zrotation Xrotation Yrotation
            JOINT Bip001_R_UpperArm
            {
              OFFSET -11.773 -0.0611516 0.00194365
              CHANNELS 3 Zrotation Xrotation Yrotation
              JOINT Bip001_R_Forearm
              {
                OFFSET -26.4514 0.0822334 -2.19736
                CHANNELS 3 Zrotation Xrotation Yrotation
                JOINT Bip001_R_Hand
                {
                  OFFSET -32.8677 0.156817 1.67144
                  CHANNELS 3 Zrotation Xrotation Yrotation
                  JOINT Bip001_R_Finger0
                  {
                    OFFSET -6.1627 -2.25224 6.0167
                    CHANNELS 3 Zrotation Xrotation Yrotation
                    End Site
                    {
                      OFFSET -4.30499 -1.46662 0.618134
                    }
                  }
                  JOINT Bip001_R_Finger1
                  {
                    OFFSET -11.2958 -0.718344 -0.201994
                    CHANNELS 3 Zrotation Xrotation Yrotation
                    End Site
                    {
                      OFFSET -6.31952 -0.405146 -0.0802475
                    }
                  }
                }
              }
            }
          }
          JOINT Bip001_Head
          {
            OFFSET 1.11782e-005 11.4912 2.09908
            CHANNELS 3 Zrotation Xrotation Yrotation
            End Site
            {
              OFFSET 2.95144e-005 21.2823 -2.83069e-005
            }
          }
        }
      }
    }
  }
}
MOTION
Frames:	10
Frame Time:	0.04
6.90642 95.5463 -8.15327 -0.257863 -1.33527 6.97723 -0.291582 0.723574 0.974819 6.32487 -8.55603 6.75443 -0.928188 14.9562 -2.93156 -3.3021 -5.03986 -2.51256 0.644076 -9.95149 -0.0434672 -6.7861 -3.39509 -1.73941 0.805814 13.9078 -0.0964375 0.345473 -8.43732 -13.0168 -0.769732 -11.497 0.571275 -0.711247 1.4411 1.95112 -0.710455 1.4411 1.95113 -2.1712 3.29295 -2.2998 -27.7438 1.74606 -11.292 -45.9954 39.6937 2.93683 13.9633 4.2006 -24.5981 -4.76785 -0.205012 -1.79762 -6.36111e-015 0 1.59028e-015 -6.36111e-015 0 1.59028e-015 22.0084 4.27751 23.4908 24.1628 -1.56034 38.7024 -53.0464 1.88166 65.4694 -48.643 12.2902 -3.34083 1.59028e-015 -3.18055e-015 -0 -1.59028e-015 0 -7.95139e-016 -0.393793 8.98543 -2.81587 
6.91972 95.5533 -8.18409 -0.343674 -1.27288 6.60308 -0.353853 0.740579 1.12729 6.44979 -8.63088 6.47559 -0.991779 15.0047 -2.59982 -3.31838 -5.11083 -2.34984 0.647324 -9.9509 -0.0254546 -6.70818 -3.52754 -2.03251 0.778016 13.8142 -0.0374777 0.442823 -8.32399 -12.6215 -0.814211 -11.4985 0.636721 -0.845058 1.47287 2.2563 -0.845063 1.4729 2.25632 -1.38554 3.70879 -2.74359 -28.2656 1.39796 -11.8807 -46.1232 39.7633 3.25261 13.7576 4.47049 -23.9265 -4.90279 -0.128432 -1.93235 1.58901e-030 -1.90833e-014 4.77083e-015 1.59028e-015 -1.27222e-014 3.18055e-015 22.5328 4.07911 22.9829 23.6744 -2.02806 38.0982 -52.6287 2.11482 67.7877 -48.67 12.3157 -2.04301 8.82781e-032 3.18055e-015 -1.59028e-015 1.59028e-015 3.18056e-015 -1.59028e-015 -0.689631 9.11412 -2.91549 
6.93723 95.5583 -8.19881 -0.370679 -1.26309 6.39816 -0.407685 0.755879 1.12018 6.52459 -8.62373 6.60186 -0.963642 15.005 -2.58906 -3.31855 -5.13982 -2.28986 0.649575 -9.94436 -0.013015 -6.64997 -3.58056 -2.19313 0.721044 13.7504 0.116705 0.524708 -8.26793 -12.4293 -0.855016 -11.4984 0.677191 -0.958406 1.5024 2.24271 -0.957427 1.5024 2.24262 -0.971335 4.43448 -2.73643 -28.3122 0.74524 -12.331 -46.7037 39.6809 3.71932 13.5773 4.42933 -23.5133 -4.65082 -0.171568 -1.57197 -6.36111e-015 -9.54166e-015 1.59028e-015 -4.77083e-015 -1.27222e-014 1.59028e-015 23.7226 3.61122 22.5425 22.7991 -1.41811 35.8103 -52.7376 1.48995 71.0529 -48.0291 11.0613 -0.570551 1.76556e-031 6.36111e-015 -1.59028e-015 3.18055e-015 9.54167e-015 -7.95139e-016 -0.908975 9.55837 -2.71459 
6.9573 95.5549 -8.20396 -0.36859 -1.34476 6.29004 -0.388966 0.793057 0.975658 6.5401 -8.55174 6.78706 -0.981148 15.0296 -2.61974 -3.28548 -5.18495 -2.20779 0.653056 -9.94081 0.00674377 -6.6643 -3.58972 -1.95691 0.730085 13.7552 0.0729627 0.561713 -8.26382 -12.3667 -0.872622 -11.4984 0.683547 -0.921697 1.57828 1.9535 -0.921254 1.57828 1.95347 -1.46813 5.71461 -2.16011 -28.2415 -0.261608 -12.8226 -46.7753 39.5705 3.93972 13.3614 4.4938 -23.1141 -4.48232 -0.163766 -1.36821 1.59028e-015 -6.36111e-015 -0 1.59028e-015 -9.54167e-015 -0 25.5492 2.55009 22.4349 21.562 0.368202 33.1606 -52.7116 1.36088 73.7611 -46.2907 9.89979 0.778076 -3.18055e-015 0 3.97569e-015 -3.18055e-015 -3.18056e-015 4.77083e-015 -0.76414 9.96476 -2.37762 
6.98139 95.5526 -8.20138 -0.362321 -1.44783 6.22914 -0.365263 0.877493 0.864134 6.51819 -8.51517 6.92533 -0.979223 15.0554 -2.64543 -3.27636 -5.20943 -2.15715 0.653912 -9.93966 0.0114458 -6.69893 -3.59811 -1.74155 0.739462 13.7727 0.00305777 0.588873 -8.26257 -12.35 -0.876625 -11.4983 0.698816 -0.882043 1.74834 1.73164 -0.882346 1.74834 1.73163 -1.64889 6.62624 -1.84734 -28.3588 -1.00228 -13.1537 -46.7764 39.6387 3.83132 13.2455 4.67638 -22.6606 -4.47713 -0.105142 -1.27892 1.59028e-015 -3.18055e-015 -0 1.59028e-015 -9.54167e-015 -0 26.9778 1.72717 21.9353 19.5969 3.85876 29.6524 -51.2011 1.21552 75.4779 -44.1724 8.62423 1.81223 3.18055e-015 6.36111e-015 -1.59028e-015 3.18055e-015 6.36111e-015 -1.59028e-015 -1.02522 10.8921 -2.05885 
7.01764 95.5513 -8.19654 -0.333627 -1.52909 6.16481 -0.389455 1.0001 0.80635 6.49943 -8.52604 7.1322 -0.920704 15.0544 -2.73413 -3.2758 -5.22251 -2.16008 0.654307 -9.93902 0.0135934 -6.72628 -3.66292 -1.65368 0.760443 13.7928 -0.00718083 0.597 -8.26513 -12.3147 -0.867076 -11.4983 0.701075 -0.92357 1.99371 1.61694 -0.923466 1.99371 1.61696 -1.3986 7.55235 -1.86636 -28.5825 -1.81211 -13.6262 -46.8154 40.069 3.66369 13.2861 4.73025 -22.3101 -4.64763 -0.190686 -1.38228 1.59028e-015 0 4.77083e-015 4.77083e-015 -6.36111e-015 3.18055e-015 28.2048 0.979656 21.4878 17.6887 9.32829 26.436 -49.1284 1.33785 74.5476 -40.815 8.28672 2.62552 3.53112e-031 3.18055e-015 -6.36111e-015 1.76556e-031 3.18056e-015 -3.18055e-015 -1.39038 11.3883 -1.88691 
7.06131 95.5482 -8.19368 -0.296534 -1.6075 6.05843 -0.408491 1.14049 0.748822 6.45002 -8.54638 7.14845 -0.898833 15.0412 -2.65605 -3.26824 -5.24858 -2.08376 0.653577 -9.93801 0.00930016 -6.76634 -3.77064 -1.65689 0.733298 13.8426 0.0651338 0.639682 -8.27917 -12.2295 -0.867519 -11.4981 0.717419 -0.958725 2.27472 1.50323 -0.958517 2.27471 1.50319 -1.24034 8.12276 -1.91028 -28.7695 -2.37493 -13.7402 -46.7055 40.1003 3.3477 13.1389 4.53974 -22.3412 -4.55139 -0.148114 -1.71934 -4.77083e-015 0 7.95139e-015 -3.18055e-015 -3.18056e-015 7.95139e-015 29.7025 0.668188 21.1004 15.8213 16.5627 23.6057 -46.4779 1.7428 71.005 -34.3021 8.93254 1.59841 6.36111e-015 -3.18055e-015 -0 3.18055e-015 0 -6.36111e-015 -1.59925 12.0534 -1.80237 
7.09863 95.5473 -8.21933 -0.282881 -1.63818 5.94145 -0.409896 1.26127 0.699779 6.42102 -8.62397 7.09424 -0.926257 15.0449 -2.52932 -3.25149 -5.2667 -1.9847 0.655448 -9.93483 0.0201294 -6.81543 -3.9191 -1.59537 0.742023 13.8695 0.0528471 0.700846 -8.26645 -12.1312 -0.894706 -11.498 0.731918 -0.969343 2.51665 1.40592 -0.969533 2.51665 1.40593 -1.14202 9.4115 -1.86484 -28.8749 -3.49504 -14.3608 -46.8985 40.1064 3.3783 13.1573 4.22368 -22.7443 -4.27711 -0.178569 -1.63669 1.59028e-015 0 -4.77083e-015 -2.64834e-031 -3.18056e-015 -4.77083e-015 31.2982 -0.224348 21.2324 14.4758 25.0886 20.9989 -42.6506 1.78175 65.1829 -27.5102 9.0147 -0.677023 1.59028e-015 -4.77083e-015 -0 -1.59028e-015 -4.77083e-015 6.36111e-015 -1.42525 11.4862 -1.80712 
7.14422 95.5432 -8.25962 -0.26585 -1.63584 5.79444 -0.395776 1.38126 0.66259 6.35713 -8.74319 6.96064 -0.968591 15.0591 -2.29595 -3.22723 -5.27499 -1.88405 0.654999 -9.93184 0.0177135 -6.89073 -4.12621 -1.52684 0.738983 13.9235 0.00995854 0.788907 -8.26313 -11.996 -0.928108 -11.4977 0.753782 -0.946369 2.75704 1.33254 -0.946371 2.75705 1.33255 -1.04763 9.85621 -1.8919 -29.1119 -3.97364 -14.2917 -46.9348 40.4714 3.29007 13.1693 3.75136 -23.2164 -4.19047 -0.172489 -1.72473 -1.59028e-015 -1.59028e-014 1.59028e-015 -3.18055e-015 -1.59028e-014 3.18055e-015 32.8343 -0.247519 21.2923 13.6548 34.1762 19.0334 -37.3371 1.49176 57.0063 -23.0241 8.98783 -1.81809 -0 -3.97569e-016 -0 -1.98785e-016 -3.97569e-016 -0 -1.47835 11.9417 -1.78086 
7.1505 95.5489 -8.30981 -0.342388 -1.74961 5.31377 -0.375006 1.49763 0.705115 6.4881 -8.70985 7.01755 -1.10711 15.1144 -2.04843 -3.1813 -5.34734 -1.73408 0.657205 -9.93068 0.0319375 -6.79027 -4.25899 -0.992363 0.716769 13.8533 -0.0887307 0.831979 -8.12756 -12.0121 -0.939737 -11.4975 0.773218 -0.911979 2.98963 1.41807 -0.911944 2.98958 1.41811 -0.847036 10.477 -1.92596 -29.445 -4.55876 -14.4433 -46.8647 40.2823 3.1709 12.9209 3.23452 -23.6931 -4.17065 -0.191201 -1.78154 4.77083e-015 3.18055e-015 -3.18055e-015 1.59028e-015 6.36111e-015 -3.18055e-015 34.2715 -0.40761 21.4823 13.9137 41.6356 17.4255 -29.6279 0.133801 49.0759 -18.0991 8.08897 -3.81084 -3.18055e-015 -7.95139e-016 -0 -4.77083e-015 7.95139e-016 -0 -1.46592 12.0166 -1.74921 
